<?xml version="1.0" encoding="utf-8"?>
<!-- Generator: Adobe Illustrator 26.3.1, SVG Export Plug-In . SVG Version: 6.00 Build 0)  -->
<svg version="1.1" id="Layer_1" xmlns="http://www.w3.org/2000/svg" xmlns:xlink="http://www.w3.org/1999/xlink" x="0px" y="0px"
	 viewBox="0 0 705 193" style="enable-background:new 0 0 705 193;" xml:space="preserve">
<style type="text/css">
	.st0{fill:#182D47;}
	.st1{fill:#122738;}
	.st2{fill:#DA3D45;}
	.st3{fill:#FFFFFF;}
	.st4{fill:#8A898C;}
	.st5{fill:#E23D42;}
</style>
<path class="st3" d="M532.1,46.2c-2.3,0.5-4.7,1.2-7.1,2c-0.4,0.1-0.9,0-1.2-0.3c-13.8-13.4-32.6-21.7-53.2-21.7
	c-35.3,0-65,24-73.9,56.6c0.1-0.2,0.4-0.3,0.6-0.3c0.4,0,0.8,0.4,0.8,0.8c0,0.1,0,0.2,0,0.2c9.9-28.3,36.6-48.5,68.1-48.5
	c8.2,0,16,1.4,23.4,3.9c2.2,0.8,1.8,2.5,0.1,2.6c-1,0.1-17.7,2.1-35.8,13.9c-1,0.6-2.1,1-3.3,1.1c-6.2,0.4-12.1,1.9-17.6,4.2
	c-1.3,0.6-0.6,2.5,0.8,2.1c3-0.9,6.2-1.6,9.4-1.9c1.1-0.1,1.7,1.2,0.9,2c-9,7.7-17.7,18.3-24.3,32.5c0.1,0,0.2-0.1,0.3-0.1
	c0.5,0,0.9,0.4,1,0.9c5.4-9.4,14.1-21.7,26.9-31.7c3.4-2.6,7.7-3.7,11.9-3c3.3,0.5,6.6,1.3,10.1,2.4c2.6,0.8,5,1.7,7.4,2.8
	c3.6,1.6,4.1,6.5,1,8.9c-25.4,19.4-49.6,44.5-62,63.5c-1.6,2.5,2,5.1,3.9,2.8c14.6-18,40.5-46.9,70.7-65.9c0.4-0.3,1-0.2,1.3,0.1
	c8.6,7.3,14.8,16.6,18,26.7c0.1,0.3,0,0.6-0.1,0.8c-0.6,0.8-1.2,1.7-1.9,2.7c-0.8,1.1,0.5,2.4,1.6,1.8c0,0,0,0,0.1,0
	c0.7-0.4,1.7,0,1.8,0.9c1.5,7.9,1.2,16.1-1.3,24.2c-3,9.7-9.5,19.9-17.7,27.7c-1,1,0.4,2.6,1.5,1.7c10.4-8.3,18.9-20.2,22.5-31.8
	c2.6-8.5,2.9-17.2,1.2-25.5c-0.1-0.5,0.2-1,0.6-1.2c4.6-1.8,9.9-3.3,15.9-4.5c1.9-0.4,3.8,1,3.9,3c0.1,1.7,0.2,3.5,0.2,5.3
	c0,31.2-19.7,57.8-47.2,68.1c0.4,0.1,0.7,0.5,0.7,0.9c0,0.2-0.1,0.4-0.2,0.6c32-9.2,55.5-38.8,55.5-74c0-16.5-5.2-31.8-14-44.3
	c-0.5-0.7-0.1-1.6,0.7-1.8c19.5-4.5,26.1,1.4,28.2,7c0.5,1.4,2.6,1.2,2.8-0.3C566.1,53.9,563.2,39.3,532.1,46.2z M492.9,65
	c-1.5,1-3.5,1.1-5.2,0.2c-4-2.2-8.2-4.1-12.7-5.5c-2.1-0.6-4.1-1.2-6.1-1.6c-2.8-0.6-3.1-4.5-0.4-5.6c10-4.1,23.3-7.6,34.8-6.1
	c1.1,0.1,2.7,0.6,4.7,2.2c2.6,2.1,2.2,6.2-0.7,7.9C502.5,58.9,497.7,61.8,492.9,65z M535.3,86.5c1,3.3-0.9,6.7-4.3,7.5l-12.4,3
	c-1.6,0.4-3.3-0.5-4-2c-3.2-7.7-8.2-14.9-14.6-20.8c-1.2-1.1-1-3.1,0.5-3.9c4-2.1,8-4.1,12.1-5.8c1.5-0.6,3-1.2,4.4-1.8
	c2.6-1,5.7-0.2,7.3,2.1C529.1,71.2,532.8,78.5,535.3,86.5z"/>
<path class="st1" d="M486.3,143c3.6-8.7,10.3-19.6,16.1-28.6c0.4-0.6-0.4-1.4-1-0.9c-12.4,10.2-15.6,22.6-16.4,29.1
	C484.9,143.5,486,143.8,486.3,143z"/>
<path class="st3" d="M420.9,96.3c0,0,0-0.1,0-0.1c-0.2,0.4-0.4,0.7-0.6,1C420.7,97.1,420.9,96.7,420.9,96.3z"/>
<path class="st3" d="M419,96.3c0,0.1,0,0.3,0.1,0.4c0.2-0.4,0.4-0.9,0.6-1.3C419.2,95.5,419,95.9,419,96.3z"/>
<path class="st3" d="M419.9,95.3c-0.1,0-0.2,0-0.3,0.1c-0.2,0.4-0.4,0.9-0.6,1.3c0.2,0.3,0.5,0.6,0.9,0.6c0.1,0,0.3,0,0.4-0.1
	c0.2-0.3,0.4-0.7,0.6-1C420.8,95.7,420.4,95.3,419.9,95.3z"/>
<path class="st5" d="M425.6,174.6c40.7-14.8,61.1-40.8,65.2-49c1.1-2.2,0.1-4.9-2.1-5.9l-7.9-3.5c-3.3-1.4-3.5-6-0.4-7.7l34.9-19.6
	c3-1.7,6.7,0.7,6.4,4.1l-2.9,38.2c-0.3,3.6-4.6,5.3-7.2,2.9l-3.5-3.2c-2-1.8-5.1-1.4-6.5,0.9c-19.8,30.3-57,43.2-74.3,46.1
	C424.2,178.6,423.5,175.3,425.6,174.6z"/>
<path class="st5" d="M24.2,131.6c3.3,5.3,8.7,7.7,12.9,7.7c7.7,0,12.3-6.1,12.3-12.5c0-12.6-12.6-14.9-21.6-10.4
	c-3.7,1.9-7.8,3-12,3h-1.2l5.8-42.9h38.9v13.5H32l-1.8,13.3c17.8-5.3,34.1,5,34.1,23.6c0,12.9-9.6,26.6-27.3,26.6
	c-9.3,0-18.1-4.7-23.9-14.9L24.2,131.6z"/>
<path class="st3" d="M279.8,142.7c-6.6,7.2-13.8,10.2-21.8,10.2c-18.6,0-28-14.4-27.9-28.6c0-14.1,9.7-28.2,27.8-28.4
	c16-0.1,27.2,10.7,26.9,26.9l0,0.1c0,4-3.3,7.3-7.3,7.3h-32.7c2.5,10.8,17.7,13,26.6,5.1L279.8,142.7z M270.6,119
	c-1.2-7.5-6.9-10.2-12.5-10.2c-5.7,0-12,2.9-13.2,10.2H270.6z"/>
<path class="st3" d="M194.2,151.9c-13.3,2.3-24.7-3-24.1-17.6v-22.1h-8.2V98.4h8.2V76h14.3v22.4h9.8v13.8h-9.8V134
	c0,3.6,3.6,6.3,9.8,5.4V151.9z"/>
<path class="st3" d="M211.4,102.4l-0.1-4.2h-13v53.7h14.6v-34.1c0-8.3,9.2-10.3,16-6.9c2.4-4.8,4.7-7.4,7.5-10.7
	C229.2,94.4,217.5,94.6,211.4,102.4z"/>
<path class="st3" d="M348,151.9l0-4.9c-3.4,4.3-8.8,6-13.2,6c-14.3,0-22-8.6-22-19c0-12.4,12-18.6,23.7-18.4
	c3.7,0.1,7.2,0.9,10.5,2.2c-0.3-7.7-5.2-10.5-10.8-10.6c-5-0.1-10.9,1.5-14.3,3.9c-0.4,0.3-0.9,0.1-1.1-0.3l-4.5-8.4
	c6.8-5.5,13.7-7,21.2-7c12.5,0,24.1,6.7,24.1,22.6v33.7H348z M347.2,137.1v-8.6c-2.7-1.2-6.1-1.9-9.6-1.9c-5.6,0-10.9,2-11,7.1
	C326.4,143.7,341.7,142.8,347.2,137.1z"/>
<path class="st3" d="M302.7,134.4V85.5c0-5-4.1-9.1-9.1-9.1H288v58c0,14.3,10.7,22,28.6,17.9c-3.1-3.4-6.4-7.8-6.9-12.4
	C303.7,140.3,302.7,137.2,302.7,134.4z"/>
<path class="st3" d="M380.6,118c-1-0.2-1.9-0.3-3-0.6c-1.8-0.5-3.7-2-3.7-3.9c0-3.4,4-5.3,6.5-5.3c3,0,6.8,1.1,10.7,4l7.9-8
	c-6.4-6.6-12.8-8.5-18.4-8.5c-7.6,0-15,3.2-18.5,9.3c2.2,3.4,3.6,7.7,3.6,13.1v6.8c3.5,3,8.1,4.9,12.7,5.7c2.8,0.5,7,1.1,7,5.1
	c0,2.9-3.7,5-6.6,4.9c-4.7-0.2-9.6-2.3-13-6.2v15.5c4.1,2.4,8.6,3.4,12.8,3.4c9.1,0,21.3-4.6,21.3-17.6
	C399.9,124.8,390,119.6,380.6,118z"/>
<path class="st3" d="M147.7,118c-1-0.2-1.9-0.3-3-0.6c-1.8-0.5-3.7-2-3.7-3.9c0-3.4,4-5.3,6.5-5.3c3,0,6.8,1.1,10.7,4l0,0V98.3
	c-3.7-1.9-7.3-2.6-10.6-2.6c-10.5,0-20.5,6-20.5,17.2c0.1,10.6,9.4,16.1,18.3,17.7c2.8,0.5,7,1.1,7,5.1c0,2.9-3.7,5-6.6,4.9
	c-4.7-0.2-9.7-2.4-13.2-6.4l0,0l-19.1,0l0,0l-0.1,0c-0.5,0.5-0.9,0.9-1.2,1.2l0,0c-8.9,8-24.1,5.7-26.6-5.1h32.7
	c4,0,7.3-3.3,7.3-7.3l0-0.1c0.2-16.3-11-27.1-26.9-26.9c-18.1,0.1-27.8,14.2-27.8,28.4c-0.1,14.1,9.3,28.6,27.9,28.6
	c6.7,0,12.8-2.1,18.5-7.1h10.4c5.4,5.4,11.9,7.4,17.9,7.4c9.1,0,21.3-4.6,21.3-17.6C167,124.8,157.2,119.6,147.7,118z M98.8,108.8
	c5.6,0,11.3,2.7,12.5,10.2H85.7C86.8,111.7,93.1,108.8,98.8,108.8z"/>
<g>
	<g>
		<path class="st3" d="M580,93.3v10h-1.3v-7.7h0l-3.5,5.7h-0.9l-3.5-5.7h0v7.7h-1.3v-10h1.3l4,6.5h0l4-6.5H580z"/>
		<path class="st3" d="M584.1,99.3v-5.9h1.3v5.8c0,1.9,1.1,3.1,2.9,3.1c1.7,0,2.9-1.1,2.9-3.1v-5.8h1.3v5.9c0,2.6-1.6,4.2-4.2,4.2
			C585.8,103.4,584.1,101.9,584.1,99.3z"/>
		<path class="st3" d="M596.7,93.3h3.3c3.4,0,5.6,2.1,5.6,5c0,3-2.1,5-5.6,5h-3.3V93.3z M599.9,102.2c2.6,0,4.3-1.6,4.3-3.9
			c0-2.3-1.7-3.9-4.2-3.9H598v7.8H599.9z"/>
		<path class="st3" d="M615.1,100.9h-4.9l-1,2.4h-1.4l4.1-10h1.3l4.1,10h-1.4L615.1,100.9z M614.7,99.8l-2-5h0l-2,5H614.7z"/>
		<path class="st3" d="M629.6,93.3v10h-1.4l-6.1-7.9h0v7.9h-1.3v-10h1.3l6.1,8h0v-8H629.6z"/>
		<path class="st3" d="M638.9,102.3c1.4,0,2.5-0.6,3.2-1.5l1,0.8c-0.9,1.1-2.3,1.9-4.2,1.9l-0.2,0.4l0,0c0.8,0,1.3,0.4,1.3,1.1
			c0,0.6-0.5,1.1-1.6,1.1c-0.4,0-0.6,0-0.9-0.1v-0.6c0.2,0.1,0.4,0.1,0.7,0.1c0.4,0,0.9-0.2,0.9-0.5c0-0.3-0.4-0.6-1.3-0.6v-0.4
			l0.2-0.4v0c-2.6-0.3-4.7-2-4.7-5c0-2.8,1.9-5.1,5.4-5.1c1.5,0,3.1,0.6,4.2,1.9l-1,0.8c-0.8-1-2-1.5-3.2-1.5c-2.5,0-4,1.7-4,4
			C634.8,100.8,636.6,102.3,638.9,102.3L638.9,102.3z"/>
		<path class="st3" d="M652.8,100.9H648l-1,2.4h-1.4l4.1-10h1.3l4.1,10h-1.4L652.8,100.9z M652.4,99.8l-2-5h0l-2,5H652.4z"/>
		<path class="st3" d="M657.8,101.9l0.8-0.9c0.8,0.9,2,1.3,3,1.3c1.3,0,2.2-0.6,2.2-1.5c0-1.1-1-1.4-2.4-1.9
			c-1.6-0.6-3.2-1.2-3.2-2.9c0-1.5,1.5-2.6,3.3-2.6c1.2,0,2.4,0.4,3.4,1.2l-0.8,0.9c-0.9-0.7-1.8-1-2.6-1c-1,0-1.9,0.5-1.9,1.4
			c0,1,1,1.3,2.3,1.8c1.8,0.7,3.4,1.1,3.4,3c0,1.8-1.8,2.8-3.6,2.8C660.2,103.4,658.8,103,657.8,101.9z"/>
		<path class="st3" d="M571.6,111.4h-3.3v-1.1h7.9v1.1H573v8.9h-1.3V111.4z"/>
		<path class="st3" d="M585.8,120.3l-2.8-3.8h-2v3.8h-1.3v-10h3.9c2.5,0,3.6,1.3,3.6,3.1c0,1.7-1,2.7-2.6,3l0,0l2.9,3.9H585.8z
			 M581,115.3h2.2c1.8,0,2.6-0.8,2.6-2c0-1.3-0.9-1.9-2.4-1.9H581V115.3z"/>
		<path class="st3" d="M597.3,117.8h-4.9l-1,2.4h-1.4l4.1-10h1.3l4.1,10h-1.4L597.3,117.8z M596.9,116.8l-2-5h0l-2,5H596.9z"/>
		<path class="st3" d="M611.8,110.3v10h-1.4l-6.1-7.9h0v7.9H603v-10h1.3l6.1,8h0v-8H611.8z"/>
		<path class="st3" d="M615.4,118.8l0.8-0.9c0.8,0.9,2,1.3,3,1.3c1.3,0,2.2-0.6,2.2-1.5c0-1.1-1-1.4-2.4-1.9
			c-1.6-0.6-3.2-1.2-3.2-2.9c0-1.5,1.5-2.6,3.3-2.6c1.2,0,2.4,0.4,3.4,1.2l-0.8,0.9c-0.9-0.7-1.8-1-2.6-1c-1,0-1.9,0.5-1.9,1.4
			c0,1,1,1.3,2.3,1.8c1.8,0.7,3.4,1.1,3.4,3c0,1.8-1.8,2.8-3.6,2.8C617.9,120.4,616.5,119.9,615.4,118.8z"/>
		<path class="st3" d="M626.6,110.3h3.8c2.5,0,3.6,1.3,3.6,3.1c0,2.1-1.6,3.1-3.8,3.1h-2.2v3.8h-1.3V110.3z M630.1,115.3
			c1.8,0,2.6-0.8,2.6-2c0-1.3-0.9-1.9-2.4-1.9h-2.3v3.9H630.1z"/>
		<path class="st3" d="M637.1,115.3c0-2.9,2.2-5.1,5.5-5.1c3.1,0,5.4,2,5.4,5.1c0,3-2.4,5.1-5.4,5.1
			C639.3,120.4,637.1,118.1,637.1,115.3z M642.6,119.2c2.3,0,4-1.6,4-3.9c0-2.3-1.8-3.9-4-3.9c-2.4,0-4.1,1.8-4.1,3.9
			C638.5,117.4,640.1,119.2,642.6,119.2L642.6,119.2z"/>
		<path class="st3" d="M657.9,120.3l-2.8-3.8h-2v3.8h-1.3v-10h3.9c2.5,0,3.6,1.3,3.6,3.1c0,1.7-1,2.7-2.6,3l0,0l2.9,3.9H657.9z
			 M653.1,115.3h2.2c1.8,0,2.6-0.8,2.6-2c0-1.3-0.9-1.9-2.4-1.9h-2.4V115.3z"/>
		<path class="st3" d="M665.2,111.4H662v-1.1h7.9v1.1h-3.3v8.9h-1.3V111.4z"/>
		<path class="st3" d="M673.2,110.3h6.7v1.1h-5.3v3.4h4.4v1.1h-4.4v3.3h5.6v1.1h-7V110.3z"/>
		<path class="st3" d="M683.2,118.8l0.8-0.9c0.8,0.9,2,1.3,3,1.3c1.3,0,2.2-0.6,2.2-1.5c0-1.1-1-1.4-2.4-1.9
			c-1.6-0.6-3.2-1.2-3.2-2.9c0-1.5,1.5-2.6,3.3-2.6c1.2,0,2.4,0.4,3.4,1.2l-0.8,0.9c-0.9-0.7-1.8-1-2.6-1c-1,0-1.9,0.5-1.9,1.4
			c0,1,1,1.3,2.3,1.8c1.8,0.7,3.4,1.1,3.4,3c0,1.8-1.8,2.8-3.6,2.8C685.7,120.4,684.3,119.9,683.2,118.8z"/>
		<path class="st3" d="M569.3,127.2h1.3v8.9h5.4v1.1h-6.7V127.2z"/>
		<path class="st3" d="M578.9,132.2c0-2.9,2.2-5.1,5.5-5.1c3.1,0,5.4,2,5.4,5.1c0,3-2.4,5.1-5.4,5.1
			C581.1,137.3,578.9,135.1,578.9,132.2z M584.4,136.1c2.3,0,4-1.6,4-3.9c0-2.3-1.8-3.9-4-3.9c-2.4,0-4.1,1.8-4.1,3.9
			C580.3,134.3,582,136.1,584.4,136.1L584.4,136.1z"/>
		<path class="st3" d="M602.8,132v4c-1,0.8-2.6,1.3-4.2,1.3c-3.1,0-5.4-2-5.4-5.1c0-3,2.1-5.1,5.4-5.1c1.5,0,3,0.5,4.1,1.6l-0.9,0.8
			c-0.9-0.8-1.9-1.2-3.2-1.2c-2.3,0-4,1.5-4,3.9c0,2.3,1.6,3.9,4,3.9c1.1,0,2.1-0.2,2.9-0.8v-2.2h-3.2V132H602.8z"/>
		<path class="st3" d="M606.9,127.2h1.3v10h-1.3V127.2z M608.8,124l1.4,0l-1.9,2H607L608.8,124z"/>
		<path class="st3" d="M611.9,135.7l0.8-0.9c0.8,0.9,2,1.3,3,1.3c1.3,0,2.2-0.6,2.2-1.5c0-1.1-1-1.4-2.4-1.9
			c-1.6-0.6-3.2-1.2-3.2-2.9c0-1.5,1.5-2.6,3.3-2.6c1.2,0,2.4,0.4,3.4,1.2l-0.8,0.9c-0.9-0.7-1.8-1-2.6-1c-1,0-1.9,0.5-1.9,1.4
			c0,1,1,1.3,2.3,1.8c1.8,0.7,3.4,1.1,3.4,3c0,1.8-1.8,2.8-3.6,2.8C614.4,137.3,612.9,136.8,611.9,135.7z"/>
		<path class="st3" d="M625.4,128.3h-3.3v-1.1h7.9v1.1h-3.3v8.9h-1.3V128.3z"/>
		<path class="st3" d="M633.4,127.2h1.3v10h-1.3V127.2z"/>
		<path class="st3" d="M644.1,137.3c-2.9,0-5.4-1.8-5.4-5c0-2.8,1.9-5.1,5.4-5.1c1.5,0,3.1,0.6,4.2,1.9l-1,0.8c-0.8-1-2-1.5-3.2-1.5
			c-2.5,0-4,1.7-4,4c0,2.4,1.7,3.9,4,3.9c1.4,0,2.5-0.6,3.2-1.5l1,0.8C647.4,136.5,646,137.3,644.1,137.3L644.1,137.3z"/>
		<path class="st3" d="M658.1,134.7h-4.9l-1,2.4h-1.4l4.1-10h1.3l4.1,10H659L658.1,134.7z M657.6,133.7l-2-5h0l-2,5H657.6z"/>
	</g>
</g>
</svg>
