<?xml version="1.0" encoding="UTF-8"?>
<svg xmlns="http://www.w3.org/2000/svg" id="Camada_2" viewBox="0 0 3476.96 958.28">
  <defs>
    <style>.cls-1{fill:#e30819;}.cls-2{fill:#1d1d1b;}</style>
  </defs>
  <g id="Camada_1-2">
    <g>
      <polygon class="cls-1" points="0 580.1 67.84 619.1 339.71 149.03 643.1 673.06 949.16 149.03 1223.17 619.1 1287.27 581.17 949.69 0 643.63 522.42 341.85 0 0 580.1"></polygon>
      <polygon class="cls-2" points="0 865.34 67.84 904.33 339.71 434.26 643.1 958.28 949.16 434.26 1223.17 904.33 1287.27 866.4 949.69 285.23 643.63 807.64 341.85 285.23 0 865.34"></polygon>
      <path class="cls-2" d="m2020.39,900.41h-33.48v-155.89c0-18.71-6.3-33.74-18.87-45.09-12.59-11.34-27.4-17.01-44.44-17.01s-31.36,5.67-44.14,17.01c-12.79,11.34-19.18,26.37-19.18,45.09v155.89h-33.48v-155.89c0-18.71-6.3-33.74-18.87-45.09-12.58-11.34-27.4-17.01-44.44-17.01s-31.36,5.67-44.14,17.01c-12.78,11.34-19.18,26.37-19.18,45.09v155.89l-37.65-.56v-247.11l32.17,24.9c19.07-18.71,42.01-28.07,68.79-28.07,16.22,0,31.65,3.79,46.26,11.35,14.61,7.57,25.97,17.53,34.09,29.86,19.49-27.47,46.06-41.21,79.76-41.21,14.2,0,27.09,2.59,38.66,7.77,11.57,5.18,21.51,11.85,29.83,20.01,8.32,8.16,15.11,17.91,20.4,29.26,5.26,11.34,7.91,23.99,7.91,37.92v155.89Z"></path>
      <polygon class="cls-2" points="2097.95 653.4 2098.47 901.95 2064.53 901.42 2064.53 671.55 2097.95 653.4"></polygon>
      <path class="cls-2" d="m2141.03,902v-246.09s30.64,22.93,30.64,22.93c19.07-19.51,42.61-29.27,70.62-29.27s51.53,9.36,70.61,28.07c19.07,18.72,28.61,41.79,28.61,69.27v153.5h-33.48v-153.5c0-18.71-6.39-34.14-19.18-46.28-12.78-12.13-28.31-18.21-46.57-18.21s-33.79,6.27-46.57,18.8c-12.79,12.54-18,27.84-18,45.76l.09,155.01h-36.77Z"></path>
      <path class="cls-2" d="m2583.99,656.14v244.27l-33.63-22.7c-19.08,19.52-42.61,29.27-70.61,29.27s-51.55-9.35-70.62-28.07c-19.08-18.71-28.61-41.81-28.61-69.28v-153.48h33.49v153.48c0,17.92,6.59,33.15,19.79,45.69,13.18,12.54,28.51,18.82,45.96,18.82,19.07,0,34.79-6.47,47.18-19.41,12.38-12.94,18.57-27.97,18.57-45.1v-153.48h38.49Z"></path>
      <path class="cls-2" d="m2662.68,688.99h-45.05v-32.85h45.05v-68.69l33.24-16.12v84.81h44.68v32.85l-44.68-.45v211.87h-33.24v-211.42Z"></path>
      <path class="cls-2" d="m2881.26,649.57c36.53,0,67.57,12.54,93.14,37.63,25.57,25.08,38.35,55.53,38.35,91.37s-12.78,65.31-38.35,90.79c-25.57,25.48-56.62,38.23-93.14,38.23s-66.57-12.74-92.53-38.23c-25.98-25.48-38.96-55.74-38.96-90.79s12.99-66.29,38.96-91.37c25.97-25.08,56.82-37.63,92.53-37.63Zm0,32.85c-27.6,0-50.83,9.25-69.7,27.76-18.87,18.52-28.31,41.31-28.31,68.39s9.44,49.87,28.31,68.39c18.87,18.51,42.1,27.77,69.7,27.77s50.32-9.35,69.4-28.07c19.07-18.71,28.62-41.4,28.62-68.09s-9.54-49.37-28.62-68.09c-19.08-18.7-42.21-28.06-69.4-28.06Z"></path>
      <g>
        <path class="cls-2" d="m2053.96,410.65h-37.34v-168.49c0-20.22-6.81-36.48-20.4-48.74-13.6-12.27-29.61-18.4-48.03-18.4s-33.89,6.13-47.7,18.4c-13.82,12.27-20.73,28.52-20.73,48.74v168.49h-36.19v-168.49c0-20.22-6.81-36.48-20.4-48.74-13.61-12.27-29.61-18.4-48.03-18.4s-33.89,6.13-47.71,18.4c-13.82,12.27-20.73,28.52-20.73,48.74v168.49h-43.4l.69-261.77,36.79,20.98c20.61-20.22,45.4-30.34,74.36-30.34,17.54,0,34.22,4.1,50.01,12.27,15.79,8.18,28.07,18.94,36.85,32.28,21.06-29.69,49.78-44.54,86.2-44.54,15.35,0,29.28,2.81,41.78,8.39,12.5,5.6,23.25,12.81,32.25,21.63,8.99,8.82,16.33,19.36,22.04,31.63,5.69,12.27,9.7,25.47,9.7,40.53v168.95Z"></path>
        <path class="cls-2" d="m2228.7,139.52c39.48,0,73.04,13.56,100.68,40.67,27.64,27.11,41.46,60.03,41.46,98.77s-13.82,70.58-41.46,98.12c-27.64,27.55-61.19,41.31-100.68,41.31s-71.95-13.77-100.02-41.31c-28.08-27.54-42.11-60.25-42.11-98.12s14.03-71.66,42.11-98.77c28.07-27.12,61.41-40.67,100.02-40.67Zm0,35.51c-29.84,0-54.95,10.01-75.34,30.02-20.4,20.01-30.6,44.65-30.6,73.91s10.2,53.9,30.6,73.91c20.4,20.01,45.5,30.02,75.34,30.02s54.39-10.11,75.01-30.34c20.62-20.22,30.93-44.75,30.93-73.59s-10.31-53.36-30.93-73.59c-20.62-20.22-45.63-30.34-75.01-30.34Z"></path>
        <path class="cls-2" d="m2400.14,410.65V3.75h36.19v406.9h-36.19Z"></path>
        <path class="cls-2" d="m2614.09,139.52c42.11,0,77.42,15.49,105.94,46.48V3.47l36.52-.28.31,407.54-40.12-35.58c-28.52,28.84-62.74,43.25-102.65,43.25s-71.95-13.77-100.02-41.31c-28.08-27.54-42.11-60.25-42.11-98.12s14.03-71.66,42.11-98.77c28.07-27.12,61.41-40.67,100.02-40.67Zm0,35.51c-29.84,0-54.95,10.01-75.34,30.02-20.4,20.01-30.6,44.65-30.6,73.91s10.2,53.9,30.6,73.91c20.4,20.01,45.5,30.02,75.34,30.02s54.39-10.11,75.01-30.34c20.62-20.22,30.93-44.75,30.93-73.59s-10.31-53.36-30.93-73.59c-20.62-20.22-45.63-30.34-75.01-30.34Z"></path>
        <path class="cls-2" d="m3011.23,146.75v261.28l-31.66-21.91c-20.63,21.09-46.06,31.63-76.33,31.63s-55.71-10.11-76.33-30.34c-20.62-20.22-30.92-45.19-30.92-74.88v-165.9h36.19v165.9c0,19.37,7.13,35.83,21.39,49.38,14.25,13.56,30.81,20.33,49.68,20.33,20.61,0,37.61-6.99,50.99-20.98,13.38-13.98,20.07-30.23,20.07-48.74v-165.9l36.92.13Z"></path>
        <path class="cls-2" d="m3196.76,145.41l-16.45,31.63c-5.26-1.72-11.63-2.58-19.08-2.58-20.18,0-36.75,6.68-49.68,20.01-12.94,13.34-19.41,29.27-19.41,47.77v167.84h-41.94s0-263.46,0-263.46l36.02,23.32c20.17-20.65,45.18-30.99,75.01-30.99,13.16,0,25.01,2.16,35.53,6.46Z"></path>
        <path class="cls-2" d="m3430.98,375.15c-28.52,28.84-62.74,43.25-102.65,43.25s-71.95-13.77-100.02-41.31c-28.08-27.54-42.11-60.25-42.11-98.12s14.03-71.66,42.11-98.77c28.06-27.12,61.41-40.67,100.02-40.67s74.13,14.43,102.65,43.25l45.99-36.41v263.73l-45.99-34.95Zm-102.65-200.12c-29.84,0-54.95,10.01-75.34,30.02-20.4,20.01-30.6,44.65-30.6,73.91s10.2,53.9,30.6,73.91c20.39,20.01,45.5,30.02,75.34,30.02s54.39-10.11,75.01-30.34c20.62-20.22,30.93-44.75,30.93-73.59s-10.31-53.36-30.93-73.59c-20.62-20.22-45.63-30.34-75.01-30.34Z"></path>
      </g>
      <polygon class="cls-2" points="2098.04 636.33 2064.54 654.55 2064.54 625.83 2098.04 607.71 2098.04 636.33"></polygon>
    </g>
  </g>
</svg>
